<?xml version="1.0" encoding="UTF-8"?>
<svg xmlns="http://www.w3.org/2000/svg" xmlns:xlink="http://www.w3.org/1999/xlink" width="500pt" height="253pt" viewBox="0 0 500 253" version="1.1">
<g id="surface1">
<path style=" stroke:none;fill-rule:nonzero;fill:rgb(68.235294%,82.745098%,100%);fill-opacity:1;" d="M 0 0 L 0 252.785156 L 484.015625 252.785156 L 484.015625 0 L 0 0 "/>
<path style=" stroke:none;fill-rule:nonzero;fill:rgb(82.352941%,89.411765%,100%);fill-opacity:1;" d="M 15.738281 0 L 15.738281 252.785156 L 499.75 252.785156 L 499.75 0 L 15.738281 0 "/>
<path style=" stroke:none;fill-rule:nonzero;fill:rgb(95.294118%,97.647059%,100%);fill-opacity:1;" d="M 60.589844 130.109375 C 60.589844 81.722656 99.773438 42.5 148.105469 42.5 C 196.4375 42.5 235.621094 81.722656 235.621094 130.109375 C 235.621094 178.492188 196.4375 217.710938 148.105469 217.710938 C 99.773438 217.710938 60.589844 178.492188 60.589844 130.109375 "/>
<path style=" stroke:none;fill-rule:nonzero;fill:rgb(65.882353%,82.352941%,62.352941%);fill-opacity:1;" d="M 148.109375 49.898438 C 103.859375 49.898438 67.984375 85.808594 67.984375 130.105469 C 67.984375 160.453125 84.820312 186.863281 109.65625 200.484375 C 122.492188 176.683594 148.109375 130.105469 148.109375 130.105469 L 186.046875 200.761719 C 211.164062 187.21875 228.230469 160.660156 228.230469 130.105469 C 228.230469 85.808594 192.359375 49.898438 148.109375 49.898438 "/>
<path style=" stroke:none;fill-rule:nonzero;fill:rgb(95.294118%,97.647059%,100%);fill-opacity:1;" d="M 445.335938 81.164062 L 300.359375 81.164062 C 295.105469 81.164062 290.808594 85.464844 290.808594 90.726562 C 290.808594 95.988281 295.105469 100.292969 300.359375 100.292969 L 445.335938 100.292969 C 450.589844 100.292969 454.890625 95.988281 454.890625 90.726562 C 454.890625 85.464844 450.589844 81.164062 445.335938 81.164062 "/>
<path style=" stroke:none;fill-rule:nonzero;fill:rgb(95.294118%,97.647059%,100%);fill-opacity:1;" d="M 445.335938 120.542969 L 300.359375 120.542969 C 295.105469 120.542969 290.808594 124.847656 290.808594 130.105469 C 290.808594 135.363281 295.105469 139.664062 300.359375 139.664062 L 445.335938 139.664062 C 450.589844 139.664062 454.890625 135.363281 454.890625 130.105469 C 454.890625 124.847656 450.589844 120.542969 445.335938 120.542969 "/>
<path style=" stroke:none;fill-rule:nonzero;fill:rgb(95.294118%,97.647059%,100%);fill-opacity:1;" d="M 445.335938 159.917969 L 300.359375 159.917969 C 295.105469 159.917969 290.808594 164.21875 290.808594 169.476562 C 290.808594 174.742188 295.105469 179.042969 300.359375 179.042969 L 445.335938 179.042969 C 450.589844 179.042969 454.890625 174.742188 454.890625 169.476562 C 454.890625 164.21875 450.589844 159.917969 445.335938 159.917969 "/>
<path style=" stroke:none;fill-rule:nonzero;fill:rgb(50.980392%,70.196078%,47.058824%);fill-opacity:1;" d="M 151.058594 91.796875 L 107.574219 91.796875 C 105.101562 91.796875 103.074219 93.824219 103.074219 96.300781 C 103.074219 98.777344 105.101562 100.800781 107.574219 100.800781 L 151.058594 100.800781 C 153.535156 100.800781 155.558594 98.777344 155.558594 96.300781 C 155.558594 93.824219 153.535156 91.796875 151.058594 91.796875 "/>
<path style=" stroke:none;fill-rule:nonzero;fill:rgb(50.980392%,70.196078%,47.058824%);fill-opacity:1;" d="M 117.476562 108.183594 L 107.574219 108.183594 C 105.101562 108.183594 103.074219 110.210938 103.074219 112.6875 C 103.074219 115.164062 105.101562 117.191406 107.574219 117.191406 L 117.476562 117.191406 C 119.953125 117.191406 121.976562 115.164062 121.976562 112.6875 C 121.976562 110.210938 119.953125 108.183594 117.476562 108.183594 "/>
</g>
</svg>
