<?xml version="1.0" encoding="UTF-8"?>
<svg xmlns="http://www.w3.org/2000/svg" xmlns:xlink="http://www.w3.org/1999/xlink" width="500pt" height="253pt" viewBox="0 0 500 253" version="1.1">
<g id="surface1">
<path style=" stroke:none;fill-rule:nonzero;fill:rgb(68.235294%,82.745098%,100%);fill-opacity:1;" d="M 0 0 L 0 252.808594 L 484.496094 252.808594 L 484.496094 0 L 0 0 "/>
<path style=" stroke:none;fill-rule:nonzero;fill:rgb(82.352941%,89.411765%,100%);fill-opacity:1;" d="M 15.753906 0 L 15.753906 252.808594 L 500.257812 252.808594 L 500.257812 0 L 15.753906 0 "/>
<path style=" stroke:none;fill-rule:nonzero;fill:rgb(95.294118%,97.647059%,100%);fill-opacity:1;" d="M 60.652344 118.597656 C 60.652344 74.75 99.875 39.207031 148.253906 39.207031 C 196.636719 39.207031 235.859375 74.75 235.859375 118.597656 C 235.859375 162.445312 196.636719 197.992188 148.253906 197.992188 C 99.875 197.992188 60.652344 162.445312 60.652344 118.597656 "/>
<path style=" stroke:none;fill-rule:nonzero;fill:rgb(95.294118%,97.647059%,100%);fill-opacity:1;" d="M 300.660156 91.582031 L 445.785156 91.582031 C 451.042969 91.582031 455.351562 87.675781 455.351562 82.910156 C 455.351562 78.144531 451.042969 74.246094 445.785156 74.246094 L 300.660156 74.246094 C 295.402344 74.246094 291.101562 78.144531 291.101562 82.910156 C 291.101562 87.675781 295.402344 91.582031 300.660156 91.582031 "/>
<path style=" stroke:none;fill-rule:nonzero;fill:rgb(95.294118%,97.647059%,100%);fill-opacity:1;" d="M 445.785156 109.929688 L 300.660156 109.929688 C 295.402344 109.929688 291.101562 113.832031 291.101562 118.597656 C 291.101562 123.363281 295.402344 127.261719 300.660156 127.261719 L 445.785156 127.261719 C 451.042969 127.261719 455.351562 123.363281 455.351562 118.597656 C 455.351562 113.832031 451.042969 109.929688 445.785156 109.929688 "/>
<path style=" stroke:none;fill-rule:nonzero;fill:rgb(95.294118%,97.647059%,100%);fill-opacity:1;" d="M 445.785156 145.617188 L 300.660156 145.617188 C 295.402344 145.617188 291.101562 149.515625 291.101562 154.28125 C 291.101562 159.046875 295.402344 162.949219 300.660156 162.949219 L 445.785156 162.949219 C 451.042969 162.949219 455.351562 159.046875 455.351562 154.28125 C 455.351562 149.515625 451.042969 145.617188 445.785156 145.617188 "/>
<path style=" stroke:none;fill-rule:nonzero;fill:rgb(94.509804%,63.921569%,30.980392%);fill-opacity:1;" d="M 148.257812 119.882812 L 68.054688 118.960938 C 68.046875 119.269531 68.046875 119.582031 68.046875 119.882812 C 68.046875 160.03125 103.960938 192.578125 148.257812 192.578125 C 164.09375 192.578125 178.855469 188.414062 191.292969 181.230469 L 148.257812 119.882812 "/>
<path style=" stroke:none;fill-rule:nonzero;fill:rgb(86.666667%,53.72549%,21.176471%);fill-opacity:1;" d="M 151.210938 142.777344 L 107.679688 142.777344 C 105.203125 142.777344 103.175781 144.609375 103.175781 146.859375 C 103.175781 149.105469 105.203125 150.9375 107.679688 150.9375 L 151.210938 150.9375 C 153.6875 150.9375 155.714844 149.105469 155.714844 146.859375 C 155.714844 144.609375 153.6875 142.777344 151.210938 142.777344 "/>
<path style=" stroke:none;fill-rule:nonzero;fill:rgb(86.666667%,53.72549%,21.176471%);fill-opacity:1;" d="M 117.59375 157.625 L 107.679688 157.625 C 105.203125 157.625 103.175781 159.464844 103.175781 161.707031 C 103.175781 163.953125 105.203125 165.792969 107.679688 165.792969 L 117.59375 165.792969 C 120.070312 165.792969 122.097656 163.953125 122.097656 161.707031 C 122.097656 159.464844 120.070312 157.625 117.59375 157.625 "/>
</g>
</svg>
