<?xml version="1.0" encoding="UTF-8"?>
<svg xmlns="http://www.w3.org/2000/svg" xmlns:xlink="http://www.w3.org/1999/xlink" width="500pt" height="253pt" viewBox="0 0 500 253" version="1.1">
<g id="surface1">
<path style=" stroke:none;fill-rule:nonzero;fill:rgb(68.235294%,82.745098%,100%);fill-opacity:1;" d="M 0 0 L 0 252.804688 L 484.441406 252.804688 L 484.441406 0 L 0 0 "/>
<path style=" stroke:none;fill-rule:nonzero;fill:rgb(82.352941%,89.411765%,100%);fill-opacity:1;" d="M 15.753906 0 L 15.753906 252.804688 L 500.195312 252.804688 L 500.195312 0 L 15.753906 0 "/>
<path style=" stroke:none;fill-rule:nonzero;fill:rgb(95.294118%,97.647059%,100%);fill-opacity:1;" d="M 148.242188 39.496094 C 99.867188 39.496094 60.652344 75.847656 60.652344 120.6875 C 60.652344 165.53125 99.867188 201.882812 148.242188 201.882812 C 196.621094 201.882812 235.835938 165.53125 235.835938 120.6875 C 235.835938 75.847656 196.621094 39.496094 148.242188 39.496094 "/>
<path style=" stroke:none;fill-rule:nonzero;fill:rgb(95.294118%,97.647059%,100%);fill-opacity:1;" d="M 445.742188 75.332031 L 300.632812 75.332031 C 295.371094 75.332031 291.070312 79.320312 291.070312 84.199219 C 291.070312 89.070312 295.371094 93.058594 300.632812 93.058594 L 445.742188 93.058594 C 451 93.058594 455.300781 89.070312 455.300781 84.199219 C 455.300781 79.320312 451 75.332031 445.742188 75.332031 "/>
<path style=" stroke:none;fill-rule:nonzero;fill:rgb(95.294118%,97.647059%,100%);fill-opacity:1;" d="M 445.742188 111.828125 L 300.632812 111.828125 C 295.371094 111.828125 291.070312 115.816406 291.070312 120.6875 C 291.070312 125.5625 295.371094 129.550781 300.632812 129.550781 L 445.742188 129.550781 C 451 129.550781 455.300781 125.5625 455.300781 120.6875 C 455.300781 115.816406 451 111.828125 445.742188 111.828125 "/>
<path style=" stroke:none;fill-rule:nonzero;fill:rgb(95.294118%,97.647059%,100%);fill-opacity:1;" d="M 445.742188 148.320312 L 300.632812 148.320312 C 295.371094 148.320312 291.070312 152.3125 291.070312 157.1875 C 291.070312 162.058594 295.371094 166.046875 300.632812 166.046875 L 445.742188 166.046875 C 451 166.046875 455.300781 162.058594 455.300781 157.1875 C 455.300781 152.3125 451 148.320312 445.742188 148.320312 "/>
<path style=" stroke:none;fill-rule:nonzero;fill:rgb(65.882353%,82.352941%,62.352941%);fill-opacity:1;" d="M 68.046875 119.511719 L 148.246094 119.511719 L 148.246094 45.175781 C 103.953125 45.175781 68.046875 78.457031 68.046875 119.511719 "/>
<path style=" stroke:none;fill-rule:nonzero;fill:rgb(94.509804%,63.921569%,30.980392%);fill-opacity:1;" d="M 228.441406 121.902344 L 68.046875 121.902344 C 68.046875 162.957031 103.953125 196.242188 148.242188 196.242188 C 148.246094 196.242188 148.246094 196.242188 148.246094 196.242188 C 192.535156 196.242188 228.441406 162.957031 228.441406 121.902344 "/>
<path style=" stroke:none;fill-rule:nonzero;fill:rgb(50.980392%,70.196078%,47.058824%);fill-opacity:1;" d="M 134.390625 81.292969 L 90.867188 81.292969 C 88.390625 81.292969 86.363281 83.167969 86.363281 85.46875 C 86.363281 87.765625 88.390625 89.636719 90.867188 89.636719 L 134.390625 89.636719 C 136.867188 89.636719 138.894531 87.765625 138.894531 85.46875 C 138.894531 83.167969 136.867188 81.292969 134.390625 81.292969 "/>
<path style=" stroke:none;fill-rule:nonzero;fill:rgb(50.980392%,70.196078%,47.058824%);fill-opacity:1;" d="M 100.78125 96.480469 L 90.867188 96.480469 C 88.390625 96.480469 86.363281 98.359375 86.363281 100.65625 C 86.363281 102.949219 88.390625 104.824219 90.867188 104.824219 L 100.78125 104.824219 C 103.257812 104.824219 105.28125 102.949219 105.28125 100.65625 C 105.28125 98.359375 103.257812 96.480469 100.78125 96.480469 "/>
<path style=" stroke:none;fill-rule:nonzero;fill:rgb(86.666667%,53.72549%,21.176471%);fill-opacity:1;" d="M 199.011719 140.074219 L 155.484375 140.074219 C 153.011719 140.074219 150.984375 141.957031 150.984375 144.25 C 150.984375 146.546875 153.011719 148.425781 155.484375 148.425781 L 199.011719 148.425781 C 201.488281 148.425781 203.515625 146.546875 203.515625 144.25 C 203.515625 141.957031 201.488281 140.074219 199.011719 140.074219 "/>
<path style=" stroke:none;fill-rule:nonzero;fill:rgb(86.666667%,53.72549%,21.176471%);fill-opacity:1;" d="M 165.398438 155.261719 L 155.484375 155.261719 C 153.011719 155.261719 150.984375 157.140625 150.984375 159.4375 C 150.984375 161.730469 153.011719 163.613281 155.484375 163.613281 L 165.398438 163.613281 C 167.875 163.613281 169.902344 161.730469 169.902344 159.4375 C 169.902344 157.140625 167.875 155.261719 165.398438 155.261719 "/>
</g>
</svg>
